<svg width="532" height="566" viewBox="0 0 532 566" fill="none" xmlns="http://www.w3.org/2000/svg">
<path d="M114.064 269.268L90.0221 293.342L281.381 484.961L305.423 460.887L114.064 269.268Z" fill="#0D1138"/>
<path d="M293.607 472.015L304.107 461V485.033H281.107L293.607 472.015Z" fill="#0D1138"/>
<path d="M56 95.0332L90 152.033V480.033H56V95.0332Z" fill="#0D1138"/>
<path d="M327.789 144.033L293.789 174.911V485.033H327.789V144.033Z" fill="#481B1B"/>
<path d="M327.289 104.042L284.289 103.77L92.7885 290.458L116.83 314.5L327.289 104.042Z" fill="#0D1138"/>
<path fill-rule="evenodd" clip-rule="evenodd" d="M317.789 312.194L317.789 350.033C359.958 350.033 400.4 337.074 430.219 314.007C460.037 290.94 476.789 259.655 476.789 227.033C476.789 194.412 460.037 163.126 430.219 140.059C400.4 116.992 359.289 103.033 317.789 104.033V110.289C379.969 114.024 430.789 158.149 430.789 212.033C430.789 268.366 393.613 312.533 327.611 312.533C324.304 312.533 321.028 312.419 317.789 312.194Z" fill="#481B1B"/>
</svg>
