<svg width="427" height="511" viewBox="0 0 427 511" fill="none" xmlns="http://www.w3.org/2000/svg">
<g id="Group 4">
<g id="Kausik">
<g id="Group 3">
<path id="Rectangle 6" d="M64.0637 189.268L40.0221 213.342L231.381 404.961L255.423 380.887L64.0637 189.268Z" fill="#30F0B6"/>
<path id="Rectangle 10" d="M243.607 392.015L254.107 381V405.033H231.107L243.607 392.015Z" fill="#30F0B6"/>
</g>
<path id="Rectangle 2" d="M6 15.0332L40 72.0332V400.033H6V15.0332Z" fill="#30F0B6"/>
<path id="Rectangle 3" d="M277.789 64.0332L243.789 94.9112V405.033H277.789V64.0332Z" fill="#A9D8D8"/>
<path id="Rectangle 5" d="M277.289 24.0417L234.289 23.7703L42.7885 210.458L66.8301 234.5L277.289 24.0417Z" fill="#30F0B6"/>
<path id="Subtract" fill-rule="evenodd" clip-rule="evenodd" d="M267.789 232.194L267.789 270.033C309.958 270.033 350.4 257.074 380.219 234.007C410.037 210.94 426.789 179.655 426.789 147.033C426.789 114.412 410.037 83.126 380.219 60.0591C350.4 36.9921 309.289 23.0332 267.789 24.0332L267.789 30.2893C329.969 34.0241 380.789 78.1492 380.789 132.033C380.789 188.366 343.613 232.533 277.611 232.533C274.304 232.533 271.028 232.419 267.789 232.194Z" fill="#A9D8D8"/>
</g>
<g id="KAUSIK PAUDEL">
<path d="M31.5625 436.289C27.9818 436.393 25.7943 436.445 25 436.445C24.0625 436.445 22.1289 436.393 19.1992 436.289C19.1211 436.576 19.1211 436.882 19.1992 437.207C20.5534 437.285 21.4909 437.402 22.0117 437.559C22.5326 437.715 22.793 438.034 22.793 438.516C22.793 438.75 22.7148 438.939 22.5586 439.082L11.4844 449.766H10.1172C10.1172 446.211 10.1953 442.65 10.3516 439.082C10.3776 438.092 12.5521 437.467 16.875 437.207C16.9531 436.96 16.9531 436.654 16.875 436.289C13.4635 436.393 10.8008 436.445 8.88672 436.445C7.28516 436.445 5.01302 436.393 2.07031 436.289C1.96615 436.523 1.96615 436.829 2.07031 437.207C5.0651 437.493 6.57552 438.118 6.60156 439.082C6.73177 442.142 6.79688 445.781 6.79688 450C6.79688 454.128 6.71875 458.236 6.5625 462.324C6.53646 463.288 5.02604 463.913 2.03125 464.199C1.92708 464.408 1.92708 464.714 2.03125 465.117C4.24479 465.039 6.51693 465 8.84766 465C11.6211 465 14.2839 465.039 16.8359 465.117C16.9401 464.909 16.9401 464.603 16.8359 464.199C12.513 463.939 10.3385 463.314 10.3125 462.324C10.1823 458.262 10.1172 454.635 10.1172 451.445L11.6797 451.406L21.1914 461.289C21.8945 462.031 22.2461 462.559 22.2461 462.871C22.2461 463.327 22.0378 463.659 21.6211 463.867C21.2044 464.062 20.3711 464.173 19.1211 464.199C19.0169 464.603 19.0169 464.909 19.1211 465.117V465.156C21.9987 465.052 24.4661 465 26.5234 465C29.5312 465 31.9531 465.039 33.7891 465.117C33.8802 464.831 33.8802 464.525 33.7891 464.199C30.7552 464.095 28.3203 463.125 26.4844 461.289L14.4336 449.082L24.9609 439.082C25.651 438.6 26.4193 438.223 27.2656 437.949C28.125 437.663 28.8281 437.487 29.375 437.422C29.9219 437.357 30.651 437.285 31.5625 437.207C31.6406 436.882 31.6406 436.576 31.5625 436.289ZM32.5977 437.969C29.4727 438.177 27.2331 438.75 25.8789 439.688L16.9141 448.242L29.1992 460.684C31.0352 462.52 32.8646 463.477 34.6875 463.555C34.8958 464.414 34.8958 465.215 34.6875 465.957C31.1589 465.749 25.7812 465.749 18.5547 465.957C18.2943 465.215 18.2552 464.414 18.4375 463.555C20.4427 463.503 21.4453 463.275 21.4453 462.871C21.4453 462.741 18.6719 459.798 13.125 454.043C13.125 456.465 13.1901 459.212 13.3203 462.285C13.3203 462.363 13.3529 462.441 13.418 462.52C13.4831 462.598 13.5742 462.663 13.6914 462.715C13.8216 462.767 13.9518 462.826 14.082 462.891C14.2122 462.943 14.388 462.995 14.6094 463.047C14.8438 463.099 15.0391 463.145 15.1953 463.184C15.3516 463.223 15.5599 463.262 15.8203 463.301C16.0938 463.34 16.3086 463.372 16.4648 463.398C16.6341 463.424 16.8555 463.451 17.1289 463.477C17.4154 463.503 17.6107 463.529 17.7148 463.555C17.9102 464.414 17.8711 465.215 17.5977 465.957C12.793 465.853 9.8763 465.801 8.84766 465.801C8.14453 465.801 5.6901 465.853 1.48438 465.957C1.15885 465.059 1.15885 464.219 1.48438 463.438C4.3099 463.151 5.73568 462.767 5.76172 462.285C5.91797 459.03 5.99609 454.935 5.99609 450C5.99609 445.807 5.93099 442.181 5.80078 439.121C5.77474 438.639 4.32292 438.255 1.44531 437.969C1.22396 437.109 1.25 436.27 1.52344 435.449C2.66927 435.449 4.21875 435.482 6.17188 435.547C8.13802 435.612 9.50521 435.645 10.2734 435.645C10.8333 435.645 11.875 435.632 13.3984 435.605C14.9219 435.579 16.2695 435.566 17.4414 435.566C17.6758 436.309 17.6888 437.109 17.4805 437.969C14.7591 438.229 13.3854 438.613 13.3594 439.121C13.2292 441.816 13.151 444.466 13.125 447.07L21.9922 438.516C21.9922 438.307 20.8854 438.125 18.6719 437.969C18.4115 437.083 18.4245 436.257 18.7109 435.488C23.4375 435.697 28.0664 435.723 32.5977 435.566C32.806 436.309 32.806 437.109 32.5977 437.969ZM67.0117 464.199C66.2826 464.16 65.5729 464.108 64.8828 464.043C64.2057 463.965 63.5872 463.861 63.0273 463.73C62.4674 463.6 61.9922 463.431 61.6016 463.223C61.224 463.001 60.9766 462.728 60.8594 462.402L50.0586 435.723C49.8372 435.736 49.6224 435.827 49.4141 435.996C49.3229 437.611 48.8281 438.906 47.9297 439.883L48.3789 441.035L40.1367 461.758C39.6159 463.06 38.0143 463.874 35.332 464.199C35.2539 464.382 35.2148 464.544 35.2148 464.688C35.2148 464.844 35.2539 465 35.332 465.156C36.8164 465.104 38.0078 465.065 38.9062 465.039C39.8177 465.013 40.4427 465 40.7812 465C41.0807 465 41.7578 465.013 42.8125 465.039C43.8802 465.065 45.3255 465.104 47.1484 465.156C47.2266 465 47.2656 464.844 47.2656 464.688C47.2656 464.544 47.2266 464.382 47.1484 464.199C46.0677 464.095 45.1888 463.984 44.5117 463.867C43.8346 463.737 43.3073 463.6 42.9297 463.457C42.5521 463.314 42.2982 463.158 42.168 462.988C42.0378 462.806 41.9727 462.604 41.9727 462.383C41.9727 462.24 41.9987 462.096 42.0508 461.953L44.9023 454.805C46.3477 454.779 47.513 454.759 48.3984 454.746C49.2969 454.733 49.9154 454.727 50.2539 454.727C50.9961 454.727 51.6536 454.733 52.2266 454.746C52.8125 454.746 53.3138 454.753 53.7305 454.766L56.5625 461.953C56.6276 462.148 56.6602 462.298 56.6602 462.402C56.6602 462.754 56.4779 463.066 56.1133 463.34C55.7617 463.613 55.3255 463.802 54.8047 463.906L52.6953 464.199C52.6172 464.382 52.5781 464.544 52.5781 464.688C52.5781 464.844 52.6172 465 52.6953 465.156C53.8021 465.117 54.9219 465.085 56.0547 465.059C57.2005 465.033 58.3724 465.02 59.5703 465.02C60.7682 465.02 61.9792 465.033 63.2031 465.059C64.4401 465.085 65.7096 465.117 67.0117 465.156C67.1029 464.974 67.1484 464.818 67.1484 464.688C67.1484 464.609 67.1354 464.531 67.1094 464.453C67.0833 464.375 67.0508 464.29 67.0117 464.199ZM50.2539 453.203C48.3659 453.203 46.8099 453.177 45.5859 453.125L49.2969 443.555H49.375L53.1055 453.164C52.4023 453.19 51.4518 453.203 50.2539 453.203ZM49.3359 445.605L46.7383 452.363C48.3138 452.441 50.0456 452.454 51.9336 452.402L49.3359 445.605ZM67.6172 463.477C67.9427 464.258 67.9297 465.085 67.5781 465.957H52.0898C51.7773 465.059 51.7773 464.232 52.0898 463.477C53.5091 463.398 54.5117 463.255 55.0977 463.047C55.6836 462.826 55.8854 462.474 55.7031 461.992L53.1445 455.527C50.7357 455.436 48.1576 455.462 45.4102 455.605L42.8906 462.07C42.8125 462.292 42.8711 462.493 43.0664 462.676C43.2747 462.845 43.6068 462.982 44.0625 463.086C44.5182 463.19 45.0521 463.275 45.6641 463.34C46.276 463.405 46.9661 463.451 47.7344 463.477C48.0599 464.258 48.0469 465.085 47.6953 465.957C43.4245 465.801 39.1211 465.801 34.7852 465.957C34.4336 465.085 34.4206 464.258 34.7461 463.477C37.4284 463.164 38.9453 462.578 39.2969 461.719L47.5391 440.996C47.487 440.892 47.3828 440.658 47.2266 440.293C47.0833 439.915 46.9987 439.668 46.9727 439.551C47.9883 438.522 48.5482 437.194 48.6523 435.566C49.7982 435.007 51.1458 434.688 52.6953 434.609L63.6523 461.797C63.8997 462.409 64.2904 462.819 64.8242 463.027C65.3581 463.223 66.2891 463.372 67.6172 463.477ZM73.3203 439.082C73.2943 438.6 71.8424 438.216 68.9648 437.93C68.8477 437.526 68.7891 437.135 68.7891 436.758C68.7891 436.328 68.8737 435.872 69.043 435.391C70.1888 435.391 71.7383 435.43 73.6914 435.508C75.6576 435.573 77.0247 435.605 77.793 435.605C78.3529 435.605 79.4336 435.592 81.0352 435.566C82.6367 435.54 84.0234 435.527 85.1953 435.527C85.3255 435.918 85.3906 436.315 85.3906 436.719C85.3906 437.096 85.3385 437.5 85.2344 437.93C82.3568 438.216 80.9049 438.6 80.8789 439.082C80.8268 439.993 80.8008 444.753 80.8008 453.359C80.8008 456.641 81.3151 459.062 82.3438 460.625C83.3724 462.188 85.0846 463.034 87.4805 463.164C90.0065 463.008 91.9531 462.09 93.3203 460.41C94.7005 458.717 95.3906 456.367 95.3906 453.359C95.3906 447.174 95.3516 442.52 95.2734 439.395C95.2474 438.757 93.8477 438.236 91.0742 437.832C90.9701 437.52 90.918 437.201 90.918 436.875C90.918 436.484 91.0091 436.022 91.1914 435.488C94.8763 435.592 97.0768 435.645 97.793 435.645C99.1862 435.645 100.964 435.605 103.125 435.527C103.307 436.087 103.398 436.497 103.398 436.758C103.398 437.161 103.307 437.565 103.125 437.969C100.43 438.229 99.069 438.704 99.043 439.395C98.9128 441.908 98.8477 446.562 98.8477 453.359C98.8477 455.391 98.5807 457.201 98.0469 458.789C97.513 460.365 96.8294 461.634 95.9961 462.598C95.1758 463.561 94.2188 464.355 93.125 464.98C92.0312 465.605 90.9766 466.029 89.9609 466.25C88.9453 466.484 87.9167 466.602 86.875 466.602C84.7917 466.602 82.9883 466.413 81.4648 466.035C79.9544 465.671 78.5677 465.02 77.3047 464.082C76.0547 463.145 75.1107 461.784 74.4727 460C73.8346 458.216 73.5156 456.003 73.5156 453.359C73.5156 446.992 73.4505 442.233 73.3203 439.082ZM77.8711 439.043C77.8971 438.053 80.0716 437.428 84.3945 437.168C84.4727 436.921 84.4727 436.608 84.3945 436.23C80.9831 436.348 78.3203 436.406 76.4062 436.406C74.8047 436.406 72.5326 436.348 69.5898 436.23C69.4857 436.478 69.4857 436.79 69.5898 437.168C70.1758 437.22 70.6576 437.272 71.0352 437.324C71.4128 437.376 71.875 437.467 72.4219 437.598C72.9688 437.728 73.3854 437.923 73.6719 438.184C73.9714 438.431 74.1211 438.73 74.1211 439.082C74.2513 443.21 74.3164 447.969 74.3164 453.359C74.3164 455.833 74.6159 457.917 75.2148 459.609C75.8138 461.289 76.7057 462.572 77.8906 463.457C79.0885 464.329 80.3906 464.935 81.7969 465.273C83.2161 465.625 84.9089 465.801 86.875 465.801C87.8385 465.801 88.7956 465.69 89.7461 465.469C90.7096 465.26 91.6992 464.863 92.7148 464.277C93.7305 463.691 94.6224 462.949 95.3906 462.051C96.1719 461.139 96.8099 459.935 97.3047 458.438C97.7995 456.94 98.0469 455.247 98.0469 453.359C98.0469 447.122 98.112 442.454 98.2422 439.355C98.2943 438.21 99.7331 437.507 102.559 437.246C102.663 437.025 102.663 436.719 102.559 436.328C100.111 436.406 98.3659 436.445 97.3242 436.445C95.6966 436.445 93.8411 436.406 91.7578 436.328C91.6536 436.536 91.6536 436.842 91.7578 437.246C94.6094 437.507 96.0482 438.21 96.0742 439.355C96.1523 442.48 96.1914 447.148 96.1914 453.359C96.1914 456.771 95.3776 459.395 93.75 461.23C92.1354 463.053 89.8177 463.965 86.7969 463.965C83.5156 463.965 81.1914 463.125 79.8242 461.445C78.4701 459.766 77.793 457.07 77.793 453.359C77.793 445.573 77.819 440.801 77.8711 439.043ZM118.242 434.844C120.104 434.844 121.816 435.104 123.379 435.625C124.941 436.146 126.348 436.484 127.598 436.641C126.908 439.062 126.882 441.673 127.52 444.473C126.855 445.033 126.094 445.358 125.234 445.449C125.13 445.202 124.941 444.688 124.668 443.906C124.408 443.112 124.154 442.461 123.906 441.953C123.672 441.445 123.34 440.866 122.91 440.215C122.493 439.564 121.934 439.049 121.23 438.672C120.54 438.281 119.746 438.014 118.848 437.871C117.533 437.988 116.517 438.392 115.801 439.082C115.085 439.772 114.727 440.664 114.727 441.758C114.727 442.878 115.013 443.802 115.586 444.531C116.159 445.247 116.901 445.788 117.812 446.152C118.737 446.504 119.753 446.816 120.859 447.09C121.966 447.35 123.066 447.676 124.16 448.066C125.254 448.444 126.257 448.945 127.168 449.57C128.092 450.182 128.841 451.1 129.414 452.324C129.987 453.548 130.273 455.039 130.273 456.797C130.273 458.932 129.655 460.768 128.418 462.305C127.181 463.841 125.723 464.941 124.043 465.605C122.363 466.27 120.645 466.602 118.887 466.602C115.02 466.602 111.191 465.749 107.402 464.043C107.48 462.363 107.52 461.335 107.52 460.957C107.52 458.848 107.318 456.582 106.914 454.16C108.086 453.6 109.395 453.574 110.84 454.082C111.322 457.038 112.253 459.303 113.633 460.879C115.026 462.454 116.549 463.333 118.203 463.516C119.753 463.411 120.944 462.91 121.777 462.012C122.624 461.1 123.047 459.948 123.047 458.555C123.047 457.383 122.773 456.393 122.227 455.586C121.68 454.766 120.957 454.134 120.059 453.691C119.16 453.236 118.184 452.826 117.129 452.461C116.087 452.096 115.033 451.712 113.965 451.309C112.897 450.892 111.914 450.397 111.016 449.824C110.13 449.251 109.414 448.451 108.867 447.422C108.32 446.393 108.047 445.143 108.047 443.672C108.047 442.344 108.255 441.152 108.672 440.098C109.102 439.043 109.655 438.197 110.332 437.559C111.022 436.921 111.823 436.387 112.734 435.957C113.659 435.527 114.57 435.234 115.469 435.078C116.38 434.922 117.305 434.844 118.242 434.844ZM118.242 435.645C117.148 435.645 116.087 435.775 115.059 436.035C114.03 436.283 113.027 436.693 112.051 437.266C111.087 437.839 110.312 438.678 109.727 439.785C109.141 440.892 108.848 442.188 108.848 443.672C108.848 444.987 109.121 446.12 109.668 447.07C110.215 448.008 110.931 448.737 111.816 449.258C112.715 449.779 113.698 450.241 114.766 450.645C115.833 451.035 116.888 451.432 117.93 451.836C118.984 452.24 119.961 452.695 120.859 453.203C121.758 453.711 122.48 454.421 123.027 455.332C123.574 456.23 123.848 457.305 123.848 458.555C123.848 460.286 123.294 461.686 122.188 462.754C121.081 463.822 119.512 464.355 117.48 464.355C115.527 464.355 113.711 463.542 112.031 461.914C110.352 460.286 109.245 457.852 108.711 454.609C108.451 454.44 108.145 454.44 107.793 454.609C108.145 456.654 108.32 458.77 108.32 460.957C108.32 461.569 108.294 462.435 108.242 463.555C111.471 465.052 114.551 465.801 117.48 465.801C119.902 465.801 122.142 465.085 124.199 463.652C126.257 462.207 127.285 460.189 127.285 457.598C127.285 456.126 126.999 454.883 126.426 453.867C125.853 452.839 125.104 452.038 124.18 451.465C123.255 450.892 122.24 450.397 121.133 449.98C120.026 449.564 118.926 449.173 117.832 448.809C116.738 448.431 115.729 448.014 114.805 447.559C113.893 447.103 113.151 446.458 112.578 445.625C112.005 444.779 111.719 443.757 111.719 442.559C111.719 440.879 112.285 439.538 113.418 438.535C114.551 437.533 116.159 437.031 118.242 437.031C121.862 437.031 124.355 439.538 125.723 444.551C126.126 444.616 126.406 444.525 126.562 444.277C126.133 441.1 125.189 438.867 123.73 437.578C122.285 436.289 120.456 435.645 118.242 435.645ZM142.5 462.324C142.396 456.882 142.344 452.773 142.344 450C142.344 446.797 142.409 443.158 142.539 439.082C142.565 438.092 144.74 437.467 149.062 437.207C149.141 436.96 149.141 436.654 149.062 436.289C145.651 436.393 142.988 436.445 141.074 436.445C139.473 436.445 137.201 436.393 134.258 436.289C134.154 436.523 134.154 436.829 134.258 437.207C137.253 437.493 138.763 438.118 138.789 439.082C138.919 442.142 138.984 445.781 138.984 450C138.984 454.128 138.906 458.236 138.75 462.324C138.724 463.288 137.214 463.913 134.219 464.199C134.115 464.408 134.115 464.714 134.219 465.117C136.432 465.039 138.704 465 141.035 465C143.809 465 146.471 465.039 149.023 465.117C149.128 464.909 149.128 464.603 149.023 464.199C144.701 463.939 142.526 463.314 142.5 462.324ZM133.633 437.969C133.411 437.109 133.438 436.27 133.711 435.449C134.857 435.449 136.406 435.482 138.359 435.547C140.326 435.612 141.693 435.645 142.461 435.645C143.021 435.645 144.102 435.632 145.703 435.605C147.305 435.579 148.691 435.566 149.863 435.566C150.111 436.309 150.124 437.109 149.902 437.969C147.025 438.255 145.573 438.639 145.547 439.121C145.391 442.376 145.312 446.484 145.312 451.445C145.312 456.237 145.378 459.85 145.508 462.285C145.508 462.363 145.54 462.441 145.605 462.52C145.671 462.598 145.762 462.663 145.879 462.715C146.009 462.767 146.139 462.826 146.27 462.891C146.4 462.943 146.576 462.995 146.797 463.047C147.031 463.099 147.227 463.145 147.383 463.184C147.539 463.223 147.747 463.262 148.008 463.301C148.281 463.34 148.496 463.372 148.652 463.398C148.822 463.424 149.043 463.451 149.316 463.477C149.603 463.503 149.798 463.529 149.902 463.555C150.124 464.284 150.085 465.085 149.785 465.957C144.98 465.853 142.064 465.801 141.035 465.801C140.332 465.801 137.878 465.853 133.672 465.957C133.346 465.059 133.346 464.219 133.672 463.438C136.497 463.151 137.923 462.767 137.949 462.285C138.105 459.03 138.184 454.935 138.184 450C138.184 445.807 138.118 442.181 137.988 439.121C137.962 438.639 136.51 438.255 133.633 437.969ZM182.422 436.289C178.841 436.393 176.654 436.445 175.859 436.445C174.922 436.445 172.988 436.393 170.059 436.289C169.98 436.576 169.98 436.882 170.059 437.207C171.413 437.285 172.35 437.402 172.871 437.559C173.392 437.715 173.652 438.034 173.652 438.516C173.652 438.75 173.574 438.939 173.418 439.082L162.344 449.766H160.977C160.977 446.211 161.055 442.65 161.211 439.082C161.237 438.092 163.411 437.467 167.734 437.207C167.812 436.96 167.812 436.654 167.734 436.289C164.323 436.393 161.66 436.445 159.746 436.445C158.145 436.445 155.872 436.393 152.93 436.289C152.826 436.523 152.826 436.829 152.93 437.207C155.924 437.493 157.435 438.118 157.461 439.082C157.591 442.142 157.656 445.781 157.656 450C157.656 454.128 157.578 458.236 157.422 462.324C157.396 463.288 155.885 463.913 152.891 464.199C152.786 464.408 152.786 464.714 152.891 465.117C155.104 465.039 157.376 465 159.707 465C162.48 465 165.143 465.039 167.695 465.117C167.799 464.909 167.799 464.603 167.695 464.199C163.372 463.939 161.198 463.314 161.172 462.324C161.042 458.262 160.977 454.635 160.977 451.445L162.539 451.406L172.051 461.289C172.754 462.031 173.105 462.559 173.105 462.871C173.105 463.327 172.897 463.659 172.48 463.867C172.064 464.062 171.23 464.173 169.98 464.199C169.876 464.603 169.876 464.909 169.98 465.117V465.156C172.858 465.052 175.326 465 177.383 465C180.391 465 182.812 465.039 184.648 465.117C184.74 464.831 184.74 464.525 184.648 464.199C181.615 464.095 179.18 463.125 177.344 461.289L165.293 449.082L175.82 439.082C176.51 438.6 177.279 438.223 178.125 437.949C178.984 437.663 179.688 437.487 180.234 437.422C180.781 437.357 181.51 437.285 182.422 437.207C182.5 436.882 182.5 436.576 182.422 436.289ZM183.457 437.969C180.332 438.177 178.092 438.75 176.738 439.688L167.773 448.242L180.059 460.684C181.895 462.52 183.724 463.477 185.547 463.555C185.755 464.414 185.755 465.215 185.547 465.957C182.018 465.749 176.641 465.749 169.414 465.957C169.154 465.215 169.115 464.414 169.297 463.555C171.302 463.503 172.305 463.275 172.305 462.871C172.305 462.741 169.531 459.798 163.984 454.043C163.984 456.465 164.049 459.212 164.18 462.285C164.18 462.363 164.212 462.441 164.277 462.52C164.342 462.598 164.434 462.663 164.551 462.715C164.681 462.767 164.811 462.826 164.941 462.891C165.072 462.943 165.247 462.995 165.469 463.047C165.703 463.099 165.898 463.145 166.055 463.184C166.211 463.223 166.419 463.262 166.68 463.301C166.953 463.34 167.168 463.372 167.324 463.398C167.493 463.424 167.715 463.451 167.988 463.477C168.275 463.503 168.47 463.529 168.574 463.555C168.77 464.414 168.73 465.215 168.457 465.957C163.652 465.853 160.736 465.801 159.707 465.801C159.004 465.801 156.549 465.853 152.344 465.957C152.018 465.059 152.018 464.219 152.344 463.438C155.169 463.151 156.595 462.767 156.621 462.285C156.777 459.03 156.855 454.935 156.855 450C156.855 445.807 156.79 442.181 156.66 439.121C156.634 438.639 155.182 438.255 152.305 437.969C152.083 437.109 152.109 436.27 152.383 435.449C153.529 435.449 155.078 435.482 157.031 435.547C158.997 435.612 160.365 435.645 161.133 435.645C161.693 435.645 162.734 435.632 164.258 435.605C165.781 435.579 167.129 435.566 168.301 435.566C168.535 436.309 168.548 437.109 168.34 437.969C165.618 438.229 164.245 438.613 164.219 439.121C164.089 441.816 164.01 444.466 163.984 447.07L172.852 438.516C172.852 438.307 171.745 438.125 169.531 437.969C169.271 437.083 169.284 436.257 169.57 435.488C174.297 435.697 178.926 435.723 183.457 435.566C183.665 436.309 183.665 437.109 183.457 437.969Z" fill="#A9D8D8"/>
<path d="M205.703 437.637C206.771 437.585 207.533 437.559 207.988 437.559C212.741 437.559 215.117 439.961 215.117 444.766C215.117 446.836 214.655 448.47 213.73 449.668C212.806 450.853 211.426 451.445 209.59 451.445C208.21 451.445 206.875 451.204 205.586 450.723C205.586 446.699 205.625 442.337 205.703 437.637ZM201.074 462.285C201.23 459.03 201.309 454.935 201.309 450C201.309 445.807 201.243 442.181 201.113 439.121C201.087 438.639 199.635 438.255 196.758 437.969C196.536 437.109 196.562 436.27 196.836 435.449C198.216 435.501 199.701 435.534 201.289 435.547C202.878 435.56 204.701 435.553 206.758 435.527C208.828 435.501 210.345 435.488 211.309 435.488C214.915 435.488 217.663 436.335 219.551 438.027C221.439 439.72 222.383 441.979 222.383 444.805C222.383 447.656 221.335 449.889 219.238 451.504C217.155 453.118 214.447 453.926 211.113 453.926C210.176 453.926 209.336 453.841 208.594 453.672C208.594 457.357 208.633 460.241 208.711 462.324C208.711 462.402 208.802 462.507 208.984 462.637C209.18 462.767 209.46 462.891 209.824 463.008C210.202 463.125 210.807 463.242 211.641 463.359C212.487 463.464 212.975 463.529 213.105 463.555C213.327 464.284 213.288 465.085 212.988 465.957C208.184 465.853 205.267 465.801 204.238 465.801C203.483 465.801 201.003 465.853 196.797 465.957C196.471 465.059 196.471 464.219 196.797 463.438C199.622 463.151 201.048 462.767 201.074 462.285ZM214.316 444.766C214.316 440.729 212.435 438.607 208.672 438.398C208.62 441.276 208.594 445.221 208.594 450.234C209.076 450.456 209.596 450.592 210.156 450.645C211.51 450.514 212.539 449.928 213.242 448.887C213.958 447.845 214.316 446.471 214.316 444.766ZM201.875 462.324C201.849 463.288 200.339 463.913 197.344 464.199C197.24 464.408 197.24 464.714 197.344 465.117C199.557 465.039 201.855 465 204.238 465C207.012 465 209.674 465.039 212.227 465.117C212.331 464.909 212.331 464.603 212.227 464.199C207.904 463.939 205.729 463.314 205.703 462.324C205.625 458.639 205.586 455.208 205.586 452.031C207.214 452.76 209.056 453.125 211.113 453.125C213.757 453.125 215.794 452.35 217.227 450.801C218.672 449.251 219.395 447.253 219.395 444.805C219.395 442.24 218.581 440.182 216.953 438.633C215.326 437.07 212.975 436.289 209.902 436.289C208.952 436.289 207.617 436.309 205.898 436.348C204.18 436.387 202.637 436.406 201.27 436.406C199.915 436.406 198.62 436.367 197.383 436.289C197.279 436.523 197.279 436.829 197.383 437.207C197.969 437.259 198.451 437.311 198.828 437.363C199.206 437.415 199.668 437.507 200.215 437.637C200.762 437.767 201.172 437.956 201.445 438.203C201.732 438.438 201.888 438.73 201.914 439.082C202.044 442.142 202.109 445.781 202.109 450C202.109 454.128 202.031 458.236 201.875 462.324ZM255.996 464.199C255.267 464.16 254.557 464.108 253.867 464.043C253.19 463.965 252.572 463.861 252.012 463.73C251.452 463.6 250.977 463.431 250.586 463.223C250.208 463.001 249.961 462.728 249.844 462.402L239.043 435.723C238.822 435.736 238.607 435.827 238.398 435.996C238.307 437.611 237.812 438.906 236.914 439.883L237.363 441.035L229.121 461.758C228.6 463.06 226.999 463.874 224.316 464.199C224.238 464.382 224.199 464.544 224.199 464.688C224.199 464.844 224.238 465 224.316 465.156C225.801 465.104 226.992 465.065 227.891 465.039C228.802 465.013 229.427 465 229.766 465C230.065 465 230.742 465.013 231.797 465.039C232.865 465.065 234.31 465.104 236.133 465.156C236.211 465 236.25 464.844 236.25 464.688C236.25 464.544 236.211 464.382 236.133 464.199C235.052 464.095 234.173 463.984 233.496 463.867C232.819 463.737 232.292 463.6 231.914 463.457C231.536 463.314 231.283 463.158 231.152 462.988C231.022 462.806 230.957 462.604 230.957 462.383C230.957 462.24 230.983 462.096 231.035 461.953L233.887 454.805C235.332 454.779 236.497 454.759 237.383 454.746C238.281 454.733 238.9 454.727 239.238 454.727C239.98 454.727 240.638 454.733 241.211 454.746C241.797 454.746 242.298 454.753 242.715 454.766L245.547 461.953C245.612 462.148 245.645 462.298 245.645 462.402C245.645 462.754 245.462 463.066 245.098 463.34C244.746 463.613 244.31 463.802 243.789 463.906L241.68 464.199C241.602 464.382 241.562 464.544 241.562 464.688C241.562 464.844 241.602 465 241.68 465.156C242.786 465.117 243.906 465.085 245.039 465.059C246.185 465.033 247.357 465.02 248.555 465.02C249.753 465.02 250.964 465.033 252.188 465.059C253.424 465.085 254.694 465.117 255.996 465.156C256.087 464.974 256.133 464.818 256.133 464.688C256.133 464.609 256.12 464.531 256.094 464.453C256.068 464.375 256.035 464.29 255.996 464.199ZM239.238 453.203C237.35 453.203 235.794 453.177 234.57 453.125L238.281 443.555H238.359L242.09 453.164C241.387 453.19 240.436 453.203 239.238 453.203ZM238.32 445.605L235.723 452.363C237.298 452.441 239.03 452.454 240.918 452.402L238.32 445.605ZM256.602 463.477C256.927 464.258 256.914 465.085 256.562 465.957H241.074C240.762 465.059 240.762 464.232 241.074 463.477C242.493 463.398 243.496 463.255 244.082 463.047C244.668 462.826 244.87 462.474 244.688 461.992L242.129 455.527C239.72 455.436 237.142 455.462 234.395 455.605L231.875 462.07C231.797 462.292 231.855 462.493 232.051 462.676C232.259 462.845 232.591 462.982 233.047 463.086C233.503 463.19 234.036 463.275 234.648 463.34C235.26 463.405 235.951 463.451 236.719 463.477C237.044 464.258 237.031 465.085 236.68 465.957C232.409 465.801 228.105 465.801 223.77 465.957C223.418 465.085 223.405 464.258 223.73 463.477C226.413 463.164 227.93 462.578 228.281 461.719L236.523 440.996C236.471 440.892 236.367 440.658 236.211 440.293C236.068 439.915 235.983 439.668 235.957 439.551C236.973 438.522 237.533 437.194 237.637 435.566C238.783 435.007 240.13 434.688 241.68 434.609L252.637 461.797C252.884 462.409 253.275 462.819 253.809 463.027C254.342 463.223 255.273 463.372 256.602 463.477ZM262.305 439.082C262.279 438.6 260.827 438.216 257.949 437.93C257.832 437.526 257.773 437.135 257.773 436.758C257.773 436.328 257.858 435.872 258.027 435.391C259.173 435.391 260.723 435.43 262.676 435.508C264.642 435.573 266.009 435.605 266.777 435.605C267.337 435.605 268.418 435.592 270.02 435.566C271.621 435.54 273.008 435.527 274.18 435.527C274.31 435.918 274.375 436.315 274.375 436.719C274.375 437.096 274.323 437.5 274.219 437.93C271.341 438.216 269.889 438.6 269.863 439.082C269.811 439.993 269.785 444.753 269.785 453.359C269.785 456.641 270.299 459.062 271.328 460.625C272.357 462.188 274.069 463.034 276.465 463.164C278.991 463.008 280.938 462.09 282.305 460.41C283.685 458.717 284.375 456.367 284.375 453.359C284.375 447.174 284.336 442.52 284.258 439.395C284.232 438.757 282.832 438.236 280.059 437.832C279.954 437.52 279.902 437.201 279.902 436.875C279.902 436.484 279.993 436.022 280.176 435.488C283.861 435.592 286.061 435.645 286.777 435.645C288.171 435.645 289.948 435.605 292.109 435.527C292.292 436.087 292.383 436.497 292.383 436.758C292.383 437.161 292.292 437.565 292.109 437.969C289.414 438.229 288.053 438.704 288.027 439.395C287.897 441.908 287.832 446.562 287.832 453.359C287.832 455.391 287.565 457.201 287.031 458.789C286.497 460.365 285.814 461.634 284.98 462.598C284.16 463.561 283.203 464.355 282.109 464.98C281.016 465.605 279.961 466.029 278.945 466.25C277.93 466.484 276.901 466.602 275.859 466.602C273.776 466.602 271.973 466.413 270.449 466.035C268.939 465.671 267.552 465.02 266.289 464.082C265.039 463.145 264.095 461.784 263.457 460C262.819 458.216 262.5 456.003 262.5 453.359C262.5 446.992 262.435 442.233 262.305 439.082ZM266.855 439.043C266.882 438.053 269.056 437.428 273.379 437.168C273.457 436.921 273.457 436.608 273.379 436.23C269.967 436.348 267.305 436.406 265.391 436.406C263.789 436.406 261.517 436.348 258.574 436.23C258.47 436.478 258.47 436.79 258.574 437.168C259.16 437.22 259.642 437.272 260.02 437.324C260.397 437.376 260.859 437.467 261.406 437.598C261.953 437.728 262.37 437.923 262.656 438.184C262.956 438.431 263.105 438.73 263.105 439.082C263.236 443.21 263.301 447.969 263.301 453.359C263.301 455.833 263.6 457.917 264.199 459.609C264.798 461.289 265.69 462.572 266.875 463.457C268.073 464.329 269.375 464.935 270.781 465.273C272.201 465.625 273.893 465.801 275.859 465.801C276.823 465.801 277.78 465.69 278.73 465.469C279.694 465.26 280.684 464.863 281.699 464.277C282.715 463.691 283.607 462.949 284.375 462.051C285.156 461.139 285.794 459.935 286.289 458.438C286.784 456.94 287.031 455.247 287.031 453.359C287.031 447.122 287.096 442.454 287.227 439.355C287.279 438.21 288.717 437.507 291.543 437.246C291.647 437.025 291.647 436.719 291.543 436.328C289.095 436.406 287.35 436.445 286.309 436.445C284.681 436.445 282.826 436.406 280.742 436.328C280.638 436.536 280.638 436.842 280.742 437.246C283.594 437.507 285.033 438.21 285.059 439.355C285.137 442.48 285.176 447.148 285.176 453.359C285.176 456.771 284.362 459.395 282.734 461.23C281.12 463.053 278.802 463.965 275.781 463.965C272.5 463.965 270.176 463.125 268.809 461.445C267.454 459.766 266.777 457.07 266.777 453.359C266.777 445.573 266.803 440.801 266.855 439.043ZM304.336 437.93C305.755 437.76 307.253 437.676 308.828 437.676C310.56 437.676 312.109 437.949 313.477 438.496C314.857 439.043 315.97 439.746 316.816 440.605C317.676 441.452 318.379 442.454 318.926 443.613C319.473 444.772 319.85 445.924 320.059 447.07C320.28 448.203 320.391 449.368 320.391 450.566C320.391 454.512 319.284 457.669 317.07 460.039C314.857 462.409 311.667 463.594 307.5 463.594L304.297 463.555C304.167 458.151 304.102 454.115 304.102 451.445C304.102 446.615 304.18 442.109 304.336 437.93ZM308.535 465.801C304.173 465.801 299.818 465.853 295.469 465.957C295.143 465.059 295.143 464.219 295.469 463.438C298.294 463.151 299.72 462.767 299.746 462.285C299.902 458.197 299.98 454.102 299.98 450C299.98 445.807 299.915 442.181 299.785 439.121C299.759 438.639 298.307 438.255 295.43 437.969C295.208 437.135 295.234 436.296 295.508 435.449C297.109 435.475 302.096 435.488 310.469 435.488C312.279 435.488 313.939 435.599 315.449 435.82C316.973 436.042 318.522 436.491 320.098 437.168C321.673 437.832 323.001 438.704 324.082 439.785C325.163 440.866 326.042 442.324 326.719 444.16C327.396 445.996 327.734 448.145 327.734 450.605C327.734 452.949 327.337 455.026 326.543 456.836C325.749 458.646 324.707 460.104 323.418 461.211C322.142 462.318 320.638 463.229 318.906 463.945C317.174 464.648 315.469 465.13 313.789 465.391C312.109 465.664 310.358 465.801 308.535 465.801ZM307.344 438.633C307.188 443.203 307.109 447.474 307.109 451.445C307.109 454.674 307.161 458.457 307.266 462.793C311.367 462.689 314.447 461.536 316.504 459.336C318.561 457.135 319.59 454.212 319.59 450.566C319.59 449.147 319.421 447.793 319.082 446.504C318.743 445.202 318.203 443.939 317.461 442.715C316.719 441.491 315.632 440.501 314.199 439.746C312.78 438.978 311.107 438.568 309.18 438.516C308.542 438.516 307.93 438.555 307.344 438.633ZM296.016 465.117C298.815 465.039 302.526 465 307.148 465C308.802 465 310.397 464.876 311.934 464.629C313.483 464.368 315.052 463.9 316.641 463.223C318.229 462.546 319.603 461.686 320.762 460.645C321.921 459.603 322.871 458.216 323.613 456.484C324.368 454.753 324.746 452.78 324.746 450.566C324.746 441.048 319.518 436.289 309.062 436.289C308.099 436.289 306.732 436.309 304.961 436.348C303.19 436.387 301.582 436.406 300.137 436.406C298.704 436.406 297.344 436.367 296.055 436.289C295.951 436.523 295.951 436.829 296.055 437.207C299.049 437.493 300.56 438.118 300.586 439.082C300.716 442.142 300.781 445.781 300.781 450C300.781 454.128 300.703 458.236 300.547 462.324C300.521 463.288 299.01 463.913 296.016 464.199C295.885 464.499 295.885 464.805 296.016 465.117ZM348.359 436.445H338.535C336.908 436.445 334.622 436.393 331.68 436.289V437.207C334.674 437.493 336.185 438.118 336.211 439.082C336.341 442.142 336.406 445.781 336.406 450C336.406 454.128 336.328 458.236 336.172 462.324C336.146 463.288 334.635 463.913 331.641 464.199C331.589 464.655 331.589 464.961 331.641 465.117C334.154 465.039 339.993 465 349.16 465C352.363 465 354.772 464.453 356.387 463.359C358.001 462.266 359.46 460.384 360.762 457.715C360.658 457.507 360.43 457.337 360.078 457.207C357.708 461.608 353.34 463.809 346.973 463.809H339.922C339.792 458.118 339.727 453.958 339.727 451.328L346.094 451.289C346.654 451.289 347.174 451.38 347.656 451.562C348.151 451.745 348.542 451.934 348.828 452.129C349.128 452.311 349.473 452.669 349.863 453.203C350.254 453.737 350.527 454.128 350.684 454.375C350.84 454.609 351.113 455.104 351.504 455.859C351.895 456.615 352.155 457.103 352.285 457.324C352.689 457.155 352.943 456.979 353.047 456.797C351.745 454.583 351.094 452.546 351.094 450.684C351.094 449.876 351.276 448.893 351.641 447.734C352.018 446.576 352.487 445.514 353.047 444.551C352.943 444.368 352.689 444.199 352.285 444.043C352.181 444.225 351.973 444.616 351.66 445.215C351.361 445.814 351.159 446.204 351.055 446.387C350.964 446.556 350.775 446.875 350.488 447.344C350.215 447.812 350 448.125 349.844 448.281C349.688 448.438 349.453 448.672 349.141 448.984C348.841 449.284 348.548 449.492 348.262 449.609C347.988 449.714 347.663 449.811 347.285 449.902C346.908 449.993 346.51 450.039 346.094 450.039C343.294 450.039 341.172 450.013 339.727 449.961C339.727 446.81 339.805 442.702 339.961 437.637H346.172C352.539 437.637 356.908 439.837 359.277 444.238C359.629 444.108 359.857 443.932 359.961 443.711C358.659 441.055 357.201 439.18 355.586 438.086C353.971 436.992 351.562 436.445 348.359 436.445ZM351.055 444.688L351.895 443.047C352.988 443.438 353.678 443.939 353.965 444.551C353.379 445.566 352.884 446.667 352.48 447.852C352.09 449.023 351.895 449.967 351.895 450.684C351.895 452.415 352.585 454.453 353.965 456.797C353.652 457.461 352.988 457.969 351.973 458.32C351.491 457.526 351.139 456.914 350.918 456.484C350.384 455.599 349.961 454.941 349.648 454.512C349.349 454.069 348.893 453.626 348.281 453.184C347.669 452.741 346.992 452.507 346.25 452.48H342.734C342.734 455.358 342.786 458.867 342.891 463.008H346.934C350.241 463.008 352.93 462.363 355 461.074C357.083 459.772 358.659 458.145 359.727 456.191C360.82 456.595 361.51 457.103 361.797 457.715C360.091 460.54 359.082 463.236 358.77 465.801H342.559C337.415 465.801 333.594 465.84 331.094 465.918C330.82 465.072 330.807 464.245 331.055 463.438C333.906 463.151 335.345 462.767 335.371 462.285C335.527 458.197 335.605 454.102 335.605 450C335.605 445.807 335.54 442.181 335.41 439.121C335.384 438.639 333.932 438.255 331.055 437.969C330.807 437.057 330.833 436.217 331.133 435.449C335.13 435.579 337.78 435.645 339.082 435.645H357.969C358.281 438.197 359.297 440.885 361.016 443.711C360.716 444.336 360.02 444.844 358.926 445.234C357.858 443.294 356.283 441.68 354.199 440.391C352.129 439.089 349.44 438.438 346.133 438.438H342.93C342.799 443.112 342.734 446.699 342.734 449.199C343.555 449.225 344.74 449.238 346.289 449.238C347.383 449.238 348.255 448.874 348.906 448.145C349.557 447.402 350.273 446.25 351.055 444.688ZM373.242 450C373.242 446.797 373.307 443.158 373.438 439.082C373.464 438.092 375.638 437.467 379.961 437.207C380.039 436.96 380.039 436.654 379.961 436.289C376.549 436.393 373.887 436.445 371.973 436.445C370.371 436.445 368.099 436.393 365.156 436.289C365.052 436.523 365.052 436.829 365.156 437.207C368.151 437.493 369.661 438.118 369.688 439.082C369.818 442.142 369.883 445.781 369.883 450C369.883 454.128 369.805 458.236 369.648 462.324C369.622 463.288 368.112 463.913 365.117 464.199C365.039 464.525 365.039 464.831 365.117 465.117C367.63 465.039 373.47 465 382.637 465C385.762 465 388.105 464.414 389.668 463.242C391.23 462.07 392.689 460.098 394.043 457.324C393.939 457.103 393.711 456.927 393.359 456.797C392.852 457.734 392.292 458.568 391.68 459.297C391.068 460.026 390.26 460.762 389.258 461.504C388.255 462.233 387.005 462.799 385.508 463.203C384.023 463.607 382.337 463.809 380.449 463.809H373.398C373.294 459.238 373.242 454.635 373.242 450ZM376.211 451.445C376.211 455.013 376.263 458.867 376.367 463.008H380.41C386.191 463.008 390.391 460.605 393.008 455.801C394.102 456.204 394.792 456.712 395.078 457.324C393.216 460.41 392.122 463.236 391.797 465.801H376.035C370.892 465.801 367.07 465.84 364.57 465.918C364.297 465.072 364.284 464.245 364.531 463.438C367.383 463.151 368.822 462.767 368.848 462.285C369.004 458.197 369.082 454.102 369.082 450C369.082 445.807 369.017 442.181 368.887 439.121C368.861 438.639 367.409 438.255 364.531 437.969C364.31 437.109 364.336 436.27 364.609 435.449C366.875 435.579 369.792 435.645 373.359 435.645C373.893 435.645 374.961 435.632 376.562 435.605C378.164 435.579 379.564 435.566 380.762 435.566C381.009 436.309 381.022 437.109 380.801 437.969C377.923 438.255 376.471 438.639 376.445 439.121C376.289 442.376 376.211 446.484 376.211 451.445Z" fill="#30F0B6"/>
</g>
</g>
</svg>
